# xmcd
# 
# Track frame offsets:
#   150
#   12866
#   27107
#   43893
#   71169
#   87820
#   106212
#   128042
#   146422
#   161835
#   182565
#   193321
#   212226
#   231462
#   249532
# 
# Disc length: 3535 seconds
# 
# Revision: 1
# Processed by: cddbd v1.5.2PL0 Copyright (c) Steve Scherf et al.
# Submitted via: Synapstar 1.0 
# 
DISCID=d70dcd0f
DTITLE=Various Artist - SC8862
DYEAR=1900
DGENRE=Country
TTITLE0=Wills, Mark - That's A Woman
TTITLE1=McBride, Martina - City Of Love
TTITLE2=Johnson, Carolyn Dawn - Simple Life
TTITLE3=McBride, Martina - God's Will
TTITLE4=Bentley, Dierks - My Last Name
TTITLE5=Keith, Toby - Taliban Song
TTITLE6=Allen, Gary - Songs About Rain
TTITLE7=Twain, Shania - She's Not Just Another Pretty Face
TTITLE8=Twain, Shania and Krauss, Alison and Union Station - Coat Of Many Colors
TTITLE9=Keith, Toby - American Soldier
TTITLE10=Byrd, Tracy - Drinkin' Bone
TTITLE11=Rimes, Leann - This Love
TTITLE12=Keith, Toby - Weed With Willie
TTITLE13=Otto, James - Days Of Our Lives
TTITLE14=Krauss, Alison and Taylor, James - How's The World Treating You
EXTD=MediaType: Karaoke CD+G Producer: Sound Choice
EXTT0=
EXTT1=
EXTT2=
EXTT3=
EXTT4=
EXTT5=
EXTT6=
EXTT7=
EXTT8=
EXTT9=
EXTT10=
EXTT11=
EXTT12=
EXTT13=
EXTT14=
PLAYORDER=
